<?xml version="1.0" encoding="UTF-8" standalone="no"?><svg xmlns="http://www.w3.org/2000/svg" xmlns:xlink="http://www.w3.org/1999/xlink" contentScriptType="application/ecmascript" contentStyleType="text/css" height="573px" preserveAspectRatio="none" style="width:514px;height:573px;" version="1.1" viewBox="0 0 514 573" width="514px" zoomAndPan="magnify"><defs><filter height="300%" id="fklv3a36ckp3" width="300%" x="-1" y="-1"><feGaussianBlur result="blurOut" stdDeviation="2.0"/><feColorMatrix in="blurOut" result="blurOut2" type="matrix" values="0 0 0 0 0 0 0 0 0 0 0 0 0 0 0 0 0 0 .4 0"/><feOffset dx="4.0" dy="4.0" in="blurOut2" result="blurOut3"/><feBlend in="SourceGraphic" in2="blurOut3" mode="normal"/></filter></defs><g><!--MD5=[46653707bef81e35964a914dd9a17ee5]
class Tienda--><rect codeLine="2" fill="#FEFECE" filter="url(#fklv3a36ckp3)" height="89.5078" id="Tienda" style="stroke:#A80036;stroke-width:1.5;" width="108" x="225" y="7"/><ellipse cx="257.1" cy="23" fill="#ADD1B2" rx="11" ry="11" style="stroke:#A80036;stroke-width:1.0;"/><path d="M259.8656,18.875 Q260.0219,18.6563 260.2094,18.5469 Q260.3969,18.4375 260.6156,18.4375 Q260.9906,18.4375 261.225,18.7031 Q261.4594,18.9531 261.4594,19.5625 L261.4594,21.0156 Q261.4594,21.625 261.225,21.8906 Q260.9906,22.1563 260.6156,22.1563 Q260.2719,22.1563 260.0688,21.9531 Q259.8656,21.7656 259.7563,21.25 Q259.7094,20.8906 259.5219,20.7031 Q259.1938,20.3281 258.5844,20.1094 Q257.975,19.8906 257.35,19.8906 Q256.5844,19.8906 255.9438,20.2188 Q255.3188,20.5469 254.8188,21.2969 Q254.3344,22.0469 254.3344,23.0781 L254.3344,24.1719 Q254.3344,25.4063 255.225,26.2344 Q256.1156,27.0469 257.7094,27.0469 Q258.6469,27.0469 259.3031,26.7969 Q259.6938,26.6406 260.1156,26.2031 Q260.3813,25.9375 260.5219,25.8594 Q260.6781,25.7813 260.8813,25.7813 Q261.2094,25.7813 261.4594,26.0469 Q261.725,26.2969 261.725,26.6406 Q261.725,26.9844 261.3813,27.3906 Q260.8813,27.9688 260.0844,28.2969 Q259.0063,28.75 257.7094,28.75 Q256.1938,28.75 254.9906,28.125 Q254.0063,27.625 253.3188,26.5625 Q252.6313,25.4844 252.6313,24.2031 L252.6313,23.0469 Q252.6313,21.7188 253.2406,20.5781 Q253.8656,19.4219 254.9594,18.8125 Q256.0531,18.1875 257.2875,18.1875 Q258.0219,18.1875 258.6625,18.3594 Q259.3188,18.5156 259.8656,18.875 Z " fill="#000000"/><text fill="#000000" font-family="sans-serif" font-size="12" lengthAdjust="spacing" textLength="38" x="274.9" y="27.9102">Tienda</text><line style="stroke:#A80036;stroke-width:1.5;" x1="226" x2="332" y1="39" y2="39"/><polygon fill="none" points="236,45,240,49,236,53,232,49" style="stroke:#B38D22;stroke-width:1.0;"/><text fill="#000000" font-family="sans-serif" font-size="11" lengthAdjust="spacing" textLength="48" x="245" y="54.4189">cif : string</text><polygon fill="none" points="236,58.8359,240,62.8359,236,66.8359,232,62.8359" style="stroke:#B38D22;stroke-width:1.0;"/><text fill="#000000" font-family="sans-serif" font-size="11" lengthAdjust="spacing" textLength="82" x="245" y="68.2549">ubicacion : string</text><polygon fill="none" points="236,72.6719,240,76.6719,236,80.6719,232,76.6719" style="stroke:#B38D22;stroke-width:1.0;"/><text fill="#000000" font-family="sans-serif" font-size="11" lengthAdjust="spacing" textLength="72" x="245" y="82.0908">nombre : string</text><line style="stroke:#A80036;stroke-width:1.5;" x1="226" x2="332" y1="88.5078" y2="88.5078"/><!--MD5=[20a748d5ee336a9a91751b0a3d4f0beb]
class Cliente--><rect codeLine="8" fill="#FEFECE" filter="url(#fklv3a36ckp3)" height="89.5078" id="Cliente" style="stroke:#A80036;stroke-width:1.5;" width="107" x="172.5" y="157"/><ellipse cx="203.7" cy="173" fill="#ADD1B2" rx="11" ry="11" style="stroke:#A80036;stroke-width:1.0;"/><path d="M206.4656,168.875 Q206.6219,168.6563 206.8094,168.5469 Q206.9969,168.4375 207.2156,168.4375 Q207.5906,168.4375 207.825,168.7031 Q208.0594,168.9531 208.0594,169.5625 L208.0594,171.0156 Q208.0594,171.625 207.825,171.8906 Q207.5906,172.1563 207.2156,172.1563 Q206.8719,172.1563 206.6688,171.9531 Q206.4656,171.7656 206.3563,171.25 Q206.3094,170.8906 206.1219,170.7031 Q205.7938,170.3281 205.1844,170.1094 Q204.575,169.8906 203.95,169.8906 Q203.1844,169.8906 202.5438,170.2188 Q201.9188,170.5469 201.4188,171.2969 Q200.9344,172.0469 200.9344,173.0781 L200.9344,174.1719 Q200.9344,175.4063 201.825,176.2344 Q202.7156,177.0469 204.3094,177.0469 Q205.2469,177.0469 205.9031,176.7969 Q206.2938,176.6406 206.7156,176.2031 Q206.9813,175.9375 207.1219,175.8594 Q207.2781,175.7813 207.4813,175.7813 Q207.8094,175.7813 208.0594,176.0469 Q208.325,176.2969 208.325,176.6406 Q208.325,176.9844 207.9813,177.3906 Q207.4813,177.9688 206.6844,178.2969 Q205.6063,178.75 204.3094,178.75 Q202.7938,178.75 201.5906,178.125 Q200.6063,177.625 199.9188,176.5625 Q199.2313,175.4844 199.2313,174.2031 L199.2313,173.0469 Q199.2313,171.7188 199.8406,170.5781 Q200.4656,169.4219 201.5594,168.8125 Q202.6531,168.1875 203.8875,168.1875 Q204.6219,168.1875 205.2625,168.3594 Q205.9188,168.5156 206.4656,168.875 Z " fill="#000000"/><text fill="#000000" font-family="sans-serif" font-size="12" lengthAdjust="spacing" textLength="39" x="221.3" y="177.9102">Cliente</text><line style="stroke:#A80036;stroke-width:1.5;" x1="173.5" x2="278.5" y1="189" y2="189"/><polygon fill="none" points="183.5,195,187.5,199,183.5,203,179.5,199" style="stroke:#B38D22;stroke-width:1.0;"/><text fill="#000000" font-family="sans-serif" font-size="11" lengthAdjust="spacing" textLength="50" x="192.5" y="204.4189">dni : string</text><polygon fill="none" points="183.5,208.8359,187.5,212.8359,183.5,216.8359,179.5,212.8359" style="stroke:#B38D22;stroke-width:1.0;"/><text fill="#000000" font-family="sans-serif" font-size="11" lengthAdjust="spacing" textLength="72" x="192.5" y="218.2549">nombre : string</text><polygon fill="none" points="183.5,222.6719,187.5,226.6719,183.5,230.6719,179.5,226.6719" style="stroke:#B38D22;stroke-width:1.0;"/><text fill="#000000" font-family="sans-serif" font-size="11" lengthAdjust="spacing" textLength="81" x="192.5" y="232.0908">telefono : integer</text><line style="stroke:#A80036;stroke-width:1.5;" x1="173.5" x2="278.5" y1="238.5078" y2="238.5078"/><!--MD5=[e54d1ddad44fdb9ba256a8749f08d4fc]
class Equipo--><rect codeLine="14" fill="#FEFECE" filter="url(#fklv3a36ckp3)" height="103.3438" id="Equipo" style="stroke:#A80036;stroke-width:1.5;" width="160" x="200" y="307"/><ellipse cx="256.25" cy="323" fill="#ADD1B2" rx="11" ry="11" style="stroke:#A80036;stroke-width:1.0;"/><path d="M259.0156,318.875 Q259.1719,318.6563 259.3594,318.5469 Q259.5469,318.4375 259.7656,318.4375 Q260.1406,318.4375 260.375,318.7031 Q260.6094,318.9531 260.6094,319.5625 L260.6094,321.0156 Q260.6094,321.625 260.375,321.8906 Q260.1406,322.1563 259.7656,322.1563 Q259.4219,322.1563 259.2188,321.9531 Q259.0156,321.7656 258.9063,321.25 Q258.8594,320.8906 258.6719,320.7031 Q258.3438,320.3281 257.7344,320.1094 Q257.125,319.8906 256.5,319.8906 Q255.7344,319.8906 255.0938,320.2188 Q254.4688,320.5469 253.9688,321.2969 Q253.4844,322.0469 253.4844,323.0781 L253.4844,324.1719 Q253.4844,325.4063 254.375,326.2344 Q255.2656,327.0469 256.8594,327.0469 Q257.7969,327.0469 258.4531,326.7969 Q258.8438,326.6406 259.2656,326.2031 Q259.5313,325.9375 259.6719,325.8594 Q259.8281,325.7813 260.0313,325.7813 Q260.3594,325.7813 260.6094,326.0469 Q260.875,326.2969 260.875,326.6406 Q260.875,326.9844 260.5313,327.3906 Q260.0313,327.9688 259.2344,328.2969 Q258.1563,328.75 256.8594,328.75 Q255.3438,328.75 254.1406,328.125 Q253.1563,327.625 252.4688,326.5625 Q251.7813,325.4844 251.7813,324.2031 L251.7813,323.0469 Q251.7813,321.7188 252.3906,320.5781 Q253.0156,319.4219 254.1094,318.8125 Q255.2031,318.1875 256.4375,318.1875 Q257.1719,318.1875 257.8125,318.3594 Q258.4688,318.5156 259.0156,318.875 Z " fill="#000000"/><text fill="#000000" font-family="sans-serif" font-size="12" lengthAdjust="spacing" textLength="39" x="276.75" y="327.9102">Equipo</text><line style="stroke:#A80036;stroke-width:1.5;" x1="201" x2="359" y1="339" y2="339"/><polygon fill="none" points="211,345,215,349,211,353,207,349" style="stroke:#B38D22;stroke-width:1.0;"/><text fill="#000000" font-family="sans-serif" font-size="11" lengthAdjust="spacing" textLength="105" x="220" y="354.4189">equipoAlquilado : bool</text><polygon fill="none" points="211,358.8359,215,362.8359,211,366.8359,207,362.8359" style="stroke:#B38D22;stroke-width:1.0;"/><text fill="#000000" font-family="sans-serif" font-size="11" lengthAdjust="spacing" textLength="117" x="220" y="368.2549">fechaAlquiler : DateTime</text><polygon fill="none" points="211,372.6719,215,376.6719,211,380.6719,207,376.6719" style="stroke:#B38D22;stroke-width:1.0;"/><text fill="#000000" font-family="sans-serif" font-size="11" lengthAdjust="spacing" textLength="134" x="220" y="382.0908">fechaDevolucion : DateTime</text><line style="stroke:#A80036;stroke-width:1.5;" x1="201" x2="359" y1="388.5078" y2="388.5078"/><polygon fill="#FFFF44" points="211,394.5078,215,398.5078,211,402.5078,207,398.5078" style="stroke:#B38D22;stroke-width:1.0;"/><text fill="#000000" font-family="sans-serif" font-size="11" lengthAdjust="spacing" textLength="106" x="220" y="403.9268">DarDeBaja() : boolean</text><!--MD5=[26f52e8cdeb22fdf912fb404b68a6082]
class Esqui--><rect codeLine="21" fill="#FEFECE" filter="url(#fklv3a36ckp3)" height="61.8359" id="Esqui" style="stroke:#A80036;stroke-width:1.5;" width="129" x="36.5" y="484"/><ellipse cx="80.75" cy="500" fill="#ADD1B2" rx="11" ry="11" style="stroke:#A80036;stroke-width:1.0;"/><path d="M83.5156,495.875 Q83.6719,495.6563 83.8594,495.5469 Q84.0469,495.4375 84.2656,495.4375 Q84.6406,495.4375 84.875,495.7031 Q85.1094,495.9531 85.1094,496.5625 L85.1094,498.0156 Q85.1094,498.625 84.875,498.8906 Q84.6406,499.1563 84.2656,499.1563 Q83.9219,499.1563 83.7188,498.9531 Q83.5156,498.7656 83.4063,498.25 Q83.3594,497.8906 83.1719,497.7031 Q82.8438,497.3281 82.2344,497.1094 Q81.625,496.8906 81,496.8906 Q80.2344,496.8906 79.5938,497.2188 Q78.9688,497.5469 78.4688,498.2969 Q77.9844,499.0469 77.9844,500.0781 L77.9844,501.1719 Q77.9844,502.4063 78.875,503.2344 Q79.7656,504.0469 81.3594,504.0469 Q82.2969,504.0469 82.9531,503.7969 Q83.3438,503.6406 83.7656,503.2031 Q84.0313,502.9375 84.1719,502.8594 Q84.3281,502.7813 84.5313,502.7813 Q84.8594,502.7813 85.1094,503.0469 Q85.375,503.2969 85.375,503.6406 Q85.375,503.9844 85.0313,504.3906 Q84.5313,504.9688 83.7344,505.2969 Q82.6563,505.75 81.3594,505.75 Q79.8438,505.75 78.6406,505.125 Q77.6563,504.625 76.9688,503.5625 Q76.2813,502.4844 76.2813,501.2031 L76.2813,500.0469 Q76.2813,498.7188 76.8906,497.5781 Q77.5156,496.4219 78.6094,495.8125 Q79.7031,495.1875 80.9375,495.1875 Q81.6719,495.1875 82.3125,495.3594 Q82.9688,495.5156 83.5156,495.875 Z " fill="#000000"/><text fill="#000000" font-family="sans-serif" font-size="12" lengthAdjust="spacing" textLength="32" x="101.25" y="504.9102">Esqui</text><line style="stroke:#A80036;stroke-width:1.5;" x1="37.5" x2="164.5" y1="516" y2="516"/><polygon fill="none" points="47.5,522,51.5,526,47.5,530,43.5,526" style="stroke:#B38D22;stroke-width:1.0;"/><text fill="#000000" font-family="sans-serif" font-size="11" lengthAdjust="spacing" textLength="103" x="56.5" y="531.4189">numeroSerie : integer</text><line style="stroke:#A80036;stroke-width:1.5;" x1="37.5" x2="164.5" y1="537.8359" y2="537.8359"/><!--MD5=[8409c9578dab3ddb6f68478ff093c993]
class MarcaEsqui--><rect codeLine="25" fill="#FEFECE" filter="url(#fklv3a36ckp3)" height="75.6719" id="MarcaEsqui" style="stroke:#A80036;stroke-width:1.5;" width="156" x="9" y="320.5"/><ellipse cx="50.55" cy="336.5" fill="#ADD1B2" rx="11" ry="11" style="stroke:#A80036;stroke-width:1.0;"/><path d="M53.3156,332.375 Q53.4719,332.1563 53.6594,332.0469 Q53.8469,331.9375 54.0656,331.9375 Q54.4406,331.9375 54.675,332.2031 Q54.9094,332.4531 54.9094,333.0625 L54.9094,334.5156 Q54.9094,335.125 54.675,335.3906 Q54.4406,335.6563 54.0656,335.6563 Q53.7219,335.6563 53.5188,335.4531 Q53.3156,335.2656 53.2063,334.75 Q53.1594,334.3906 52.9719,334.2031 Q52.6438,333.8281 52.0344,333.6094 Q51.425,333.3906 50.8,333.3906 Q50.0344,333.3906 49.3938,333.7188 Q48.7688,334.0469 48.2688,334.7969 Q47.7844,335.5469 47.7844,336.5781 L47.7844,337.6719 Q47.7844,338.9063 48.675,339.7344 Q49.5656,340.5469 51.1594,340.5469 Q52.0969,340.5469 52.7531,340.2969 Q53.1438,340.1406 53.5656,339.7031 Q53.8313,339.4375 53.9719,339.3594 Q54.1281,339.2813 54.3313,339.2813 Q54.6594,339.2813 54.9094,339.5469 Q55.175,339.7969 55.175,340.1406 Q55.175,340.4844 54.8313,340.8906 Q54.3313,341.4688 53.5344,341.7969 Q52.4563,342.25 51.1594,342.25 Q49.6438,342.25 48.4406,341.625 Q47.4563,341.125 46.7688,340.0625 Q46.0813,338.9844 46.0813,337.7031 L46.0813,336.5469 Q46.0813,335.2188 46.6906,334.0781 Q47.3156,332.9219 48.4094,332.3125 Q49.5031,331.6875 50.7375,331.6875 Q51.4719,331.6875 52.1125,331.8594 Q52.7688,332.0156 53.3156,332.375 Z " fill="#000000"/><text fill="#000000" font-family="sans-serif" font-size="12" lengthAdjust="spacing" textLength="65" x="70.45" y="341.4102">MarcaEsqui</text><line style="stroke:#A80036;stroke-width:1.5;" x1="10" x2="164" y1="352.5" y2="352.5"/><polygon fill="none" points="20,358.5,24,362.5,20,366.5,16,362.5" style="stroke:#B38D22;stroke-width:1.0;"/><text fill="#000000" font-family="sans-serif" font-size="11" lengthAdjust="spacing" textLength="130" x="29" y="367.9189">direccionProveedor : string</text><polygon fill="none" points="20,372.3359,24,376.3359,20,380.3359,16,376.3359" style="stroke:#B38D22;stroke-width:1.0;"/><text fill="#000000" font-family="sans-serif" font-size="11" lengthAdjust="spacing" textLength="112" x="29" y="381.7549">servicioTecnico : string</text><line style="stroke:#A80036;stroke-width:1.5;" x1="10" x2="164" y1="388.1719" y2="388.1719"/><!--MD5=[307e441a91f8799ecf33b18f542fdc58]
class Gafas--><rect codeLine="30" fill="#FEFECE" filter="url(#fklv3a36ckp3)" height="89.5078" id="Gafas" style="stroke:#A80036;stroke-width:1.5;" width="129" x="207.5" y="470"/><ellipse cx="251.3" cy="486" fill="#ADD1B2" rx="11" ry="11" style="stroke:#A80036;stroke-width:1.0;"/><path d="M254.0656,481.875 Q254.2219,481.6563 254.4094,481.5469 Q254.5969,481.4375 254.8156,481.4375 Q255.1906,481.4375 255.425,481.7031 Q255.6594,481.9531 255.6594,482.5625 L255.6594,484.0156 Q255.6594,484.625 255.425,484.8906 Q255.1906,485.1563 254.8156,485.1563 Q254.4719,485.1563 254.2688,484.9531 Q254.0656,484.7656 253.9563,484.25 Q253.9094,483.8906 253.7219,483.7031 Q253.3938,483.3281 252.7844,483.1094 Q252.175,482.8906 251.55,482.8906 Q250.7844,482.8906 250.1438,483.2188 Q249.5188,483.5469 249.0188,484.2969 Q248.5344,485.0469 248.5344,486.0781 L248.5344,487.1719 Q248.5344,488.4063 249.425,489.2344 Q250.3156,490.0469 251.9094,490.0469 Q252.8469,490.0469 253.5031,489.7969 Q253.8938,489.6406 254.3156,489.2031 Q254.5813,488.9375 254.7219,488.8594 Q254.8781,488.7813 255.0813,488.7813 Q255.4094,488.7813 255.6594,489.0469 Q255.925,489.2969 255.925,489.6406 Q255.925,489.9844 255.5813,490.3906 Q255.0813,490.9688 254.2844,491.2969 Q253.2063,491.75 251.9094,491.75 Q250.3938,491.75 249.1906,491.125 Q248.2063,490.625 247.5188,489.5625 Q246.8313,488.4844 246.8313,487.2031 L246.8313,486.0469 Q246.8313,484.7188 247.4406,483.5781 Q248.0656,482.4219 249.1594,481.8125 Q250.2531,481.1875 251.4875,481.1875 Q252.2219,481.1875 252.8625,481.3594 Q253.5188,481.5156 254.0656,481.875 Z " fill="#000000"/><text fill="#000000" font-family="sans-serif" font-size="12" lengthAdjust="spacing" textLength="33" x="271.7" y="490.9102">Gafas</text><line style="stroke:#A80036;stroke-width:1.5;" x1="208.5" x2="335.5" y1="502" y2="502"/><polygon fill="none" points="218.5,508,222.5,512,218.5,516,214.5,512" style="stroke:#B38D22;stroke-width:1.0;"/><text fill="#000000" font-family="sans-serif" font-size="11" lengthAdjust="spacing" textLength="66" x="227.5" y="517.4189">marca : string</text><polygon fill="none" points="218.5,521.8359,222.5,525.8359,218.5,529.8359,214.5,525.8359" style="stroke:#B38D22;stroke-width:1.0;"/><text fill="#000000" font-family="sans-serif" font-size="11" lengthAdjust="spacing" textLength="70" x="227.5" y="531.2549">modelo : string</text><polygon fill="none" points="218.5,535.6719,222.5,539.6719,218.5,543.6719,214.5,539.6719" style="stroke:#B38D22;stroke-width:1.0;"/><text fill="#000000" font-family="sans-serif" font-size="11" lengthAdjust="spacing" textLength="103" x="227.5" y="545.0908">numeroSerie : integer</text><line style="stroke:#A80036;stroke-width:1.5;" x1="208.5" x2="335.5" y1="551.5078" y2="551.5078"/><!--MD5=[22c8b4f49f1fc69147180a6f713e27c6]
class Baston--><rect codeLine="36" fill="#FEFECE" filter="url(#fklv3a36ckp3)" height="89.5078" id="Baston" style="stroke:#A80036;stroke-width:1.5;" width="129" x="371.5" y="470"/><ellipse cx="412.6" cy="486" fill="#ADD1B2" rx="11" ry="11" style="stroke:#A80036;stroke-width:1.0;"/><path d="M415.3656,481.875 Q415.5219,481.6563 415.7094,481.5469 Q415.8969,481.4375 416.1156,481.4375 Q416.4906,481.4375 416.725,481.7031 Q416.9594,481.9531 416.9594,482.5625 L416.9594,484.0156 Q416.9594,484.625 416.725,484.8906 Q416.4906,485.1563 416.1156,485.1563 Q415.7719,485.1563 415.5688,484.9531 Q415.3656,484.7656 415.2563,484.25 Q415.2094,483.8906 415.0219,483.7031 Q414.6938,483.3281 414.0844,483.1094 Q413.475,482.8906 412.85,482.8906 Q412.0844,482.8906 411.4438,483.2188 Q410.8188,483.5469 410.3188,484.2969 Q409.8344,485.0469 409.8344,486.0781 L409.8344,487.1719 Q409.8344,488.4063 410.725,489.2344 Q411.6156,490.0469 413.2094,490.0469 Q414.1469,490.0469 414.8031,489.7969 Q415.1938,489.6406 415.6156,489.2031 Q415.8813,488.9375 416.0219,488.8594 Q416.1781,488.7813 416.3813,488.7813 Q416.7094,488.7813 416.9594,489.0469 Q417.225,489.2969 417.225,489.6406 Q417.225,489.9844 416.8813,490.3906 Q416.3813,490.9688 415.5844,491.2969 Q414.5063,491.75 413.2094,491.75 Q411.6938,491.75 410.4906,491.125 Q409.5063,490.625 408.8188,489.5625 Q408.1313,488.4844 408.1313,487.2031 L408.1313,486.0469 Q408.1313,484.7188 408.7406,483.5781 Q409.3656,482.4219 410.4594,481.8125 Q411.5531,481.1875 412.7875,481.1875 Q413.5219,481.1875 414.1625,481.3594 Q414.8188,481.5156 415.3656,481.875 Z " fill="#000000"/><text fill="#000000" font-family="sans-serif" font-size="12" lengthAdjust="spacing" textLength="39" x="432.4" y="490.9102">Baston</text><line style="stroke:#A80036;stroke-width:1.5;" x1="372.5" x2="499.5" y1="502" y2="502"/><polygon fill="none" points="382.5,508,386.5,512,382.5,516,378.5,512" style="stroke:#B38D22;stroke-width:1.0;"/><text fill="#000000" font-family="sans-serif" font-size="11" lengthAdjust="spacing" textLength="66" x="391.5" y="517.4189">marca : string</text><polygon fill="none" points="382.5,521.8359,386.5,525.8359,382.5,529.8359,378.5,525.8359" style="stroke:#B38D22;stroke-width:1.0;"/><text fill="#000000" font-family="sans-serif" font-size="11" lengthAdjust="spacing" textLength="70" x="391.5" y="531.2549">modelo : string</text><polygon fill="none" points="382.5,535.6719,386.5,539.6719,382.5,543.6719,378.5,539.6719" style="stroke:#B38D22;stroke-width:1.0;"/><text fill="#000000" font-family="sans-serif" font-size="11" lengthAdjust="spacing" textLength="103" x="391.5" y="545.0908">numeroSerie : integer</text><line style="stroke:#A80036;stroke-width:1.5;" x1="372.5" x2="499.5" y1="551.5078" y2="551.5078"/><!--MD5=[2d397980e6f57fdbe85b7c032f989aa1]
link Tienda to Equipo--><path codeLine="42" d="M288.35,97.06 C291.81,115.49 295.3,137.19 297,157 C300.42,196.85 300.05,207.12 297,247 C295.64,264.8 293.06,284.08 290.32,301.47 " fill="none" id="Tienda-to-Equipo" style="stroke:#A80036;stroke-width:1.0;"/><polygon fill="#A80036" points="289.46,306.8,294.8233,298.5396,290.2449,301.862,286.9225,297.2836,289.46,306.8" style="stroke:#A80036;stroke-width:1.0;"/><text fill="#000000" font-family="sans-serif" font-size="13" lengthAdjust="spacing" textLength="7" x="282.1727" y="118.076">1</text><text fill="#000000" font-family="sans-serif" font-size="13" lengthAdjust="spacing" textLength="5" x="285.3953" y="296.2735">*</text><!--MD5=[74463207fbc31d55255900a970a1881a]
link Tienda to Cliente--><path codeLine="43" d="M263.24,97 C257.05,114.29 249.92,134.22 243.56,151.97 " fill="none" id="Tienda-to-Cliente" style="stroke:#A80036;stroke-width:1.0;"/><polygon fill="#A80036" points="241.79,156.91,248.5936,149.7888,243.478,152.2036,241.0633,147.088,241.79,156.91" style="stroke:#A80036;stroke-width:1.0;"/><text fill="#000000" font-family="sans-serif" font-size="13" lengthAdjust="spacing" textLength="7" x="253.5316" y="118.0076">1</text><text fill="#000000" font-family="sans-serif" font-size="13" lengthAdjust="spacing" textLength="5" x="238.9081" y="146.0111">*</text><!--MD5=[81458ce8149fc7b37a180b194d5a1c8d]
link Cliente to Equipo--><path codeLine="44" d="M241.47,247.27 C247.43,264.31 254.3,283.98 260.58,301.94 " fill="none" id="Cliente-to-Equipo" style="stroke:#A80036;stroke-width:1.0;"/><polygon fill="#A80036" points="262.34,306.96,263.1383,297.1436,260.6863,302.2414,255.5885,299.7894,262.34,306.96" style="stroke:#A80036;stroke-width:1.0;"/><text fill="#000000" font-family="sans-serif" font-size="13" lengthAdjust="spacing" textLength="7" x="236.0785" y="267.98">1</text><text fill="#000000" font-family="sans-serif" font-size="13" lengthAdjust="spacing" textLength="7" x="252.3644" y="296.0829">1</text><!--MD5=[a7817e2c9b90436db77f7e45e5247824]
link Equipo to Esqui--><path codeLine="45" d="M212.3078,417.9331 C212.3078,417.9331 165.69,458.16 145.91,475.24 " fill="none" id="Equipo-Esqui" style="stroke:#A80036;stroke-width:1.0;"/><polygon fill="#A80036" points="135.95,483.83,145.376,480.9751,139.7342,480.562,140.1473,474.9203,135.95,483.83" style="stroke:#A80036;stroke-width:1.0;"/><line style="stroke:#A80036;stroke-width:1.0;" x1="139.7342" x2="145.795" y1="480.562" y2="475.335"/><polygon fill="#A80036" points="221.39,410.09,214.2345,410.9842,212.3078,417.9331,219.4633,417.0389,221.39,410.09" style="stroke:#A80036;stroke-width:1.0;"/><text fill="#000000" font-family="sans-serif" font-size="13" lengthAdjust="spacing" textLength="7" x="205.6558" y="431.9655">1</text><text fill="#000000" font-family="sans-serif" font-size="13" lengthAdjust="spacing" textLength="7" x="135.4366" y="473.2995">2</text><!--MD5=[52f5cbd21b8424a684900b0d07fa24a2]
link Equipo to Gafas--><path codeLine="46" d="M276.7604,422.074 C276.7604,422.074 275.53,445.77 274.98,456.53 " fill="none" id="Equipo-Gafas" style="stroke:#A80036;stroke-width:1.0;"/><polygon fill="#A80036" points="274.29,469.79,278.7494,461.0086,274.5482,464.7967,270.7601,460.5955,274.29,469.79" style="stroke:#A80036;stroke-width:1.0;"/><line style="stroke:#A80036;stroke-width:1.0;" x1="274.5482" x2="274.965" y1="464.7967" y2="456.815"/><polygon fill="#A80036" points="277.38,410.09,273.0755,415.8755,276.7604,422.074,281.0648,416.2885,277.38,410.09" style="stroke:#A80036;stroke-width:1.0;"/><text fill="#000000" font-family="sans-serif" font-size="13" lengthAdjust="spacing" textLength="7" x="269.5194" y="431.9655">1</text><text fill="#000000" font-family="sans-serif" font-size="13" lengthAdjust="spacing" textLength="7" x="267.1047" y="459.2019">1</text><!--MD5=[ae31603589d4284b9a0f2ab689f1a7bf]
link Equipo to Baston--><path codeLine="47" d="M339.6113,418.529 C339.6113,418.529 368.44,447.09 381.83,460.35 " fill="none" id="Equipo-Baston" style="stroke:#A80036;stroke-width:1.0;"/><polygon fill="#A80036" points="391.37,469.79,387.7845,460.617,387.8153,466.2737,382.1585,466.3045,391.37,469.79" style="stroke:#A80036;stroke-width:1.0;"/><line style="stroke:#A80036;stroke-width:1.0;" x1="387.8153" x2="382.13" y1="466.2737" y2="460.645"/><polygon fill="#A80036" points="331.08,410.09,332.5327,417.1533,339.6113,418.529,338.1587,411.4657,331.08,410.09" style="stroke:#A80036;stroke-width:1.0;"/><text fill="#000000" font-family="sans-serif" font-size="13" lengthAdjust="spacing" textLength="7" x="330.7709" y="431.9655">1</text><text fill="#000000" font-family="sans-serif" font-size="13" lengthAdjust="spacing" textLength="7" x="377.0001" y="459.2019">2</text><!--MD5=[2ded60e2de66cc79a2145f9c41221a70]
link MarcaEsqui to Esqui--><path codeLine="48" d="M91.54,409.6 C93.32,429.28 97.1783,471.8188 97.1783,471.8188 " fill="none" id="MarcaEsqui-Esqui" style="stroke:#A80036;stroke-width:1.0;"/><polygon fill="#A80036" points="98.26,483.77,101.7029,477.4339,97.1783,471.8188,93.7354,478.155,98.26,483.77" style="stroke:#A80036;stroke-width:1.0;"/><polygon fill="#A80036" points="90.35,396.51,87.1775,405.8339,90.8007,401.4896,95.145,405.1128,90.35,396.51" style="stroke:#A80036;stroke-width:1.0;"/><line style="stroke:#A80036;stroke-width:1.0;" x1="90.8007" x2="91.53" y1="401.4896" y2="409.45"/><text fill="#000000" font-family="sans-serif" font-size="13" lengthAdjust="spacing" textLength="7" x="83.3252" y="417.6818">1</text><text fill="#000000" font-family="sans-serif" font-size="13" lengthAdjust="spacing" textLength="5" x="92.1793" y="473.2271">*</text><!--MD5=[e35f108ac2ea26ab24c74cfab93a37e5]
@startuml Act3-IreneSanchez

class Tienda{
    #cif : string
    #ubicacion : string
    #nombre : string
}

class Cliente{
    # dni : string
    # nombre : string
    # telefono : integer
}

class Equipo{
    # equipoAlquilado : bool
    # fechaAlquiler : DateTime
    # fechaDevolucion : DateTime
    # DarDeBaja() : boolean
}

class Esqui{
    # numeroSerie : integer
}

class MarcaEsqui{
    # direccionProveedor : string
    # servicioTecnico : string
}

class Gafas{
    # marca : string
    # modelo : string
    # numeroSerie : integer
}

class Baston{
    # marca : string
    # modelo : string
    # numeroSerie : integer
}

Tienda "1" - -> "*" Equipo
Tienda "1" - -> "*" Cliente
Cliente "1" - -> "1" Equipo
Equipo "1" *- -> "2" Esqui
Equipo "1" *- -> "1" Gafas
Equipo "1" *- -> "2" Baston
MarcaEsqui "1" <- -* "*" Esqui

@enduml

PlantUML version 1.2021.00(Sun Jan 10 11:25:05 CET 2021)
(GPL source distribution)
Java Runtime: Java(TM) SE Runtime Environment
JVM: Java HotSpot(TM) 64-Bit Server VM
Default Encoding: Cp1252
Language: es
Country: ES
--></g></svg>